<?xml version="1.0" encoding="iso-8859-1"?>
<!-- Generator: Adobe Illustrator 19.0.0, SVG Export Plug-In . SVG Version: 6.00 Build 0)  -->
<svg version="1.1" id="Capa_1" xmlns="http://www.w3.org/2000/svg" xmlns:xlink="http://www.w3.org/1999/xlink" x="0px" y="0px"
	 viewBox="0 0 512 512" style="enable-background:new 0 0 512 512;" xml:space="preserve">
<g transform="matrix(1.25 0 0 -1.25 0 45)">
	<g>
		<g>
			<path style="fill:#F4ABBA;" d="M389.04-120.322c4.403,4.221,8.34,9.045,11.605,14.564c19.172,32.461,3.061,117.1-6.736,122.88
				c-7.919,4.676-62.919-11.947-93.821-35.635C271.656-1.481,239.286,8.577,204.8,8.577c-34.384,0-66.628-10.001-94.993-26.931
				C78.848,5.255,24.098,21.787,16.202,17.122c-9.796-5.78-25.896-90.419-6.736-122.88c3.163-5.359,6.997-10.058,11.253-14.211
				C7.566-148.994,0-180.749,0-213.039c0-113.664,91.136-142.473,204.8-142.473c113.653,0,204.8,28.809,204.8,142.473
				C409.6-180.874,402.079-149.267,389.04-120.322"/>
			<g>
				<path style="fill:#EA596E;" d="M84.207-36.479C59.563-22.052,34.122-12.813,29.594-15.487
					c-6.485-3.823-12.322-56.866-3.994-94.026C40.073-81.285,60.177-56.253,84.207-36.479"/>
				<path style="fill:#EA596E;" d="M384.068-109.57c8.329,37.171,2.492,90.203-3.994,94.037
					c-4.528,2.662-29.969-6.576-54.613-21.003C349.503-56.299,369.607-81.33,384.068-109.57"/>
				<path style="fill:#EA596E;" d="M318.612-231.778c0-51.052-35.237-106.667-113.778-106.667
					c-78.552,0-113.778,55.615-113.778,106.667s35.226,64,113.778,64C283.375-167.778,318.612-180.726,318.612-231.778"/>
			</g>
			<path id="SVGCleanerId_0" style="fill:#662113;" d="M170.701-248.561c0-21.129-3.868-27.307-17.067-27.307
				c-13.198,0-17.067,6.178-17.067,27.307c0,21.117,3.868,27.295,17.067,27.295C166.832-221.265,170.701-227.444,170.701-248.561"/>
			<g transform="translate(9)">
				<path id="SVGCleanerId_0_1_" style="fill:#662113;" d="M273.101-248.561c0-21.129-3.868-27.307-17.067-27.307
					c-13.198,0-17.067,6.178-17.067,27.307c0,21.117,3.868,27.295,17.067,27.295C269.232-221.265,273.101-227.444,273.101-248.561"
					/>
			</g>
			<g>
				<path style="fill:#292F33;" d="M102.434-162.09c0-12.561-10.194-22.756-22.756-22.756s-22.756,10.194-22.756,22.756
					c0,12.572,10.194,22.756,22.756,22.756S102.434-149.517,102.434-162.09"/>
				<path style="fill:#292F33;" d="M352.745-162.09c0-12.561-10.183-22.756-22.756-22.756c-12.561,0-22.756,10.194-22.756,22.756
					c0,12.572,10.194,22.756,22.756,22.756C342.562-139.334,352.745-149.517,352.745-162.09"/>
			</g>
		</g>
	</g>
</g>
<g>
</g>
<g>
</g>
<g>
</g>
<g>
</g>
<g>
</g>
<g>
</g>
<g>
</g>
<g>
</g>
<g>
</g>
<g>
</g>
<g>
</g>
<g>
</g>
<g>
</g>
<g>
</g>
<g>
</g>
</svg>
